<?xml version="1.0" encoding="UTF-8"?>
<!-- Generator: Adobe Illustrator 27.0.1, SVG Export Plug-In . SVG Version: 6.00 Build 0)  -->
<svg xmlns="http://www.w3.org/2000/svg" xmlns:xlink="http://www.w3.org/1999/xlink" version="1.1" id="Layer_1" x="0px" y="0px" viewBox="0 0 2820 1080" style="enable-background:new 0 0 2820 1080;" xml:space="preserve">
<style type="text/css">
	.st0{fill:#AEDB01;}
	.st1{fill:#B0B1AC;}
	.st2{fill:#5D6D3C;}
</style>
<g>
	<path d="M1621.2,572.8c-9.8-14.2-23.2-25-40.3-32.4c-3.1-1.3-6.3-2.4-9.6-3.5c13.8-7.2,25-16.9,33.2-29.2   c9.1-13.7,13.7-29.8,13.7-48.4c0-27.7-11.2-50-33.7-66.9c-22.5-16.9-56-25.3-100.6-25.3h-173.4v354.8H1494   c46.6,0,82-8.5,105.9-25.6c24-17.1,36-40.8,36-71.2C1635.9,604.4,1631,587,1621.2,572.8 M1473.7,428.9c19.9,0,35.2,3.4,45.9,10.1   c10.6,6.8,16,17.2,16,31.4c0,14.2-5.3,24.8-16,31.7c-10.7,6.9-25.9,10.4-45.9,10.4h-81.6v-83.6H1473.7z M1536.5,649.3   c-11.2,7.1-27.2,10.6-48.2,10.6h-96.3v-87.7h96.3c21,0,37,3.5,48.2,10.6c11.2,7.1,16.7,18.2,16.7,33.4   C1553.3,631.3,1547.7,642.3,1536.5,649.3"></path>
	<path d="M1852.1,727.9c-28,0-53.9-4.6-77.6-13.7c-23.7-9.1-44.3-22-61.8-38.5c-17.6-16.5-31.2-36-40.8-58.3   c-9.6-22.3-14.4-46.6-14.4-73c0-26.7,4.8-51.1,14.4-73.2c9.6-22.1,23.2-41.5,40.8-58c17.6-16.5,38.1-29.4,61.6-38.5   c23.5-9.1,49.3-13.7,77.3-13.7c28,0,53.8,4.5,77.3,13.4c23.5,9,44,21.7,61.6,38.3c17.6,16.6,31.2,36,40.8,58.3   c9.6,22.3,14.5,46.8,14.5,73.5c0,26.4-4.8,50.8-14.5,73.2c-9.6,22.5-23.2,42-40.8,58.5c-17.6,16.6-38.1,29.3-61.6,38.3   C1905.4,723.4,1879.8,727.9,1852.1,727.9 M1851.6,658.5c15.9,0,30.5-2.8,43.8-8.4c13.3-5.6,25.1-13.5,35.2-23.8   c10.1-10.3,18-22.3,23.6-36s8.4-29,8.4-45.9c0-16.9-2.8-32.2-8.4-45.9c-5.6-13.7-13.4-25.7-23.6-36c-10.1-10.3-21.9-18.2-35.2-23.8   c-13.4-5.6-28-8.4-43.8-8.4c-15.9,0-30.6,2.8-44.1,8.4c-13.5,5.6-25.3,13.5-35.2,23.8c-10,10.3-17.7,22.3-23.3,36   c-5.6,13.7-8.4,29-8.4,45.9c0,16.9,2.8,32.2,8.4,45.9c5.6,13.7,13.3,25.7,23.3,36c10,10.3,21.7,18.2,35.2,23.8   C1821,655.7,1835.7,658.5,1851.6,658.5"></path>
	<path d="M2399.9,572.8c-9.8-14.2-23.2-25-40.3-32.4c-3.1-1.3-6.3-2.4-9.6-3.5c13.8-7.2,25-16.9,33.2-29.2   c9.1-13.7,13.7-29.8,13.7-48.4c0-27.7-11.2-50-33.7-66.9c-22.5-16.9-56-25.3-100.6-25.3h-173.4v354.8h183.5c46.6,0,82-8.5,106-25.6   c24-17.1,36-40.8,36-71.2C2414.6,604.4,2409.7,587,2399.9,572.8 M2252.3,428.9c19.9,0,35.2,3.4,45.9,10.1c10.6,6.8,16,17.2,16,31.4   c0,14.2-5.3,24.8-16,31.7c-10.7,6.9-25.9,10.4-45.9,10.4h-81.6v-83.6H2252.3z M2315.2,649.3C2304,656.4,2288,660,2267,660h-96.3   v-87.7h96.3c21,0,37,3.5,48.2,10.6c11.2,7.1,16.7,18.2,16.7,33.4C2331.9,631.3,2326.4,642.3,2315.2,649.3"></path>
	<path d="M2733.8,721.8h86.2L2660.8,367h-81.1l-157.7,354.8h84.2l31.6-76h164.4L2733.8,721.8z M2563.8,583.5l56.3-135.2l56.3,135.2   H2563.8z"></path>
	<polygon points="1432.3,808.9 1432.3,915.5 1345,808.9 1311.3,808.9 1311.3,984.6 1351.5,984.6 1351.5,878 1438.9,984.6    1472.5,984.6 1472.5,808.9  "></polygon>
	<polygon points="1546.4,952 1546.4,911.3 1628,911.3 1628,879.5 1546.4,879.5 1546.4,841.6 1638.8,841.6 1638.8,808.9 1506,808.9    1506,984.6 1642.1,984.6 1642.1,952  "></polygon>
	<polygon points="1719,984.6 1719,842.1 1662.8,842.1 1662.8,808.9 1815.9,808.9 1815.9,842.1 1759.7,842.1 1759.7,984.6  "></polygon>
	<polygon points="2070.3,808.9 2029.4,933.3 1989.3,808.9 1951.6,808.9 1910.2,932.4 1870.5,808.9 1828.3,808.9 1886.1,984.6    1929.5,984.6 1969.4,865.5 2008.3,984.6 2051.5,984.6 2109.2,808.9  "></polygon>
	<path d="M2202,987.6c-13.9,0-26.7-2.3-38.4-6.8c-11.7-4.5-21.9-10.9-30.6-19.1c-8.7-8.2-15.4-17.8-20.2-28.9   c-4.8-11-7.2-23.1-7.2-36.1c0-13.2,2.4-25.3,7.2-36.3c4.8-11,11.5-20.5,20.2-28.7c8.7-8.2,18.9-14.6,30.5-19.1   c11.6-4.5,24.4-6.8,38.3-6.8c13.9,0,26.7,2.2,38.3,6.7c11.6,4.4,21.8,10.8,30.5,18.9c8.7,8.2,15.4,17.8,20.2,28.9   c4.8,11,7.2,23.2,7.2,36.4c0,13.1-2.4,25.1-7.2,36.3c-4.8,11.1-11.5,20.8-20.2,29c-8.7,8.2-18.9,14.5-30.5,18.9   C2228.4,985.4,2215.7,987.6,2202,987.6 M2201.7,953.2c7.9,0,15.1-1.4,21.7-4.1c6.6-2.8,12.4-6.7,17.4-11.8c5-5.1,8.9-11,11.7-17.8   c2.8-6.8,4.1-14.3,4.1-22.7c0-8.4-1.4-15.9-4.1-22.7c-2.8-6.8-6.6-12.7-11.7-17.8c-5-5.1-10.8-9-17.4-11.8   c-6.6-2.8-13.8-4.1-21.7-4.1c-7.9,0-15.1,1.4-21.8,4.1c-6.7,2.8-12.5,6.7-17.4,11.8c-4.9,5.1-8.8,11-11.5,17.8   c-2.8,6.8-4.1,14.3-4.1,22.7c0,8.4,1.4,15.9,4.1,22.7c2.8,6.8,6.6,12.7,11.5,17.8c4.9,5.1,10.8,9,17.4,11.8   C2186.6,951.9,2193.8,953.2,2201.7,953.2"></path>
	<path d="M2473.9,982.7l-38.2-55.1c11-4.9,19.6-12,25.6-21.2c6.2-9.5,9.3-20.8,9.3-34c0-13-3.1-24.3-9.3-33.9   c-6.2-9.5-15-16.9-26.4-22c-11.4-5.1-24.9-7.6-40.7-7.6h-76.1v175.7h40.9v-49.2h35.1c1,0,2-0.1,3-0.1l32.9,47.4H2473.9z    M2420.2,850c6.4,5.3,9.5,12.8,9.5,22.5c0,9.7-3.2,17.2-9.5,22.6c-6.4,5.4-15.7,8-28.1,8h-32.9v-61h32.9   C2404.5,842.1,2413.8,844.7,2420.2,850"></path>
	<polygon points="2614.9,984.6 2662.6,984.6 2585.5,887.3 2658.1,808.9 2612.9,808.9 2535.1,890.9 2535.1,808.9 2494.7,808.9    2494.7,984.6 2535.1,984.6 2535.1,940 2558.4,915.7  "></polygon>
	<g>
		<path class="st0" d="M492.9,720H0V0h492.9c169.2,0,306.3,137.1,306.3,306.2v107.5C799.2,582.9,662.1,720,492.9,720"></path>
		<path class="st1" d="M619.9,1080H0V720c0-198.8,161.2-360,360.1-360h259.8C818.8,360,980,521.2,980,720S818.8,1080,619.9,1080"></path>
		<path class="st2" d="M799.2,407.8v6C799.2,583,662.1,720,492.8,720H0c0-99.4,40.4-189.4,105.4-254.6    c65.2-65.2,155.2-105.4,254.8-105.4h259.7C685.2,360.1,746.4,377.5,799.2,407.8"></path>
	</g>
</g>
</svg>
